<?xml version="1.0" encoding="utf-8"?>
<!-- Generator: Adobe Illustrator 17.0.0, SVG Export Plug-In . SVG Version: 6.00 Build 0)  -->
<!DOCTYPE svg PUBLIC "-//W3C//DTD SVG 1.1//EN" "http://www.w3.org/Graphics/SVG/1.1/DTD/svg11.dtd">
<svg version="1.1" id="Layer_1" xmlns="http://www.w3.org/2000/svg" xmlns:xlink="http://www.w3.org/1999/xlink" x="0px" y="0px"
	 width="512px" height="512px" viewBox="580.5 0 512 512" enable-background="new 580.5 0 512 512" xml:space="preserve">
<circle fill="none" stroke="#E6262C" stroke-width="16" stroke-miterlimit="10" cx="836.5" cy="256" r="234.5"/>
<g transform="translate(0,-952.36218)">
	<g transform="translate(-457,1215)">
		<path fill="#E6262C" d="M1242.809,20.152c-6.366-6.071-10.566-13.419-11.372-20.443c-0.65-6.81,1.414-13.923,11.034-22.542
			c3.185-2.853,7.347-6.369,9.409-12.523c2.062-6.154,0.68-13.257-3.114-20.308c-10.576-13.106-20.245-27.939-29.785-38.991
			c-6.546-6.546-16.004-8.55-23.016-6.363c-6.62,2.046-11.725,6.564-15.975,10.695c-23.964,23.964-34.015,48.617-29.717,73.447
			c4.298,24.829,21.377,48.184,47.046,73.853c10.152,10.152,21.315,21.315,30.326,30.326c25.669,25.669,49.024,42.748,73.853,47.046
			c24.829,4.298,49.483-5.753,73.447-29.717c4.131-4.251,8.65-9.355,10.695-15.975c2.187-7.011,0.183-16.47-6.363-23.016
			c-11.052-9.54-25.885-19.209-38.991-29.785c-7.051-3.793-14.154-5.176-20.308-3.114c-6.154,2.062-9.67,6.225-12.523,9.409
			c-8.618,9.62-15.732,11.684-22.542,11.034c-7.024-0.806-14.373-5.006-20.443-11.372 M1205.781-81.861l26.874,35.132
			c2.074,4.012,1.886,5.174,1.76,5.551c-0.133,0.396-1.243,1.956-4.197,4.603c-12.82,11.485-18.27,25.35-17.058,38.043
			c1.205,12.626,8.122,23.373,16.652,31.68c7.914,7.914,13.97,13.97,21.662,21.662c8.306,8.531,19.054,15.447,31.68,16.652
			c12.693,1.212,26.558-4.239,38.043-17.058c2.647-2.955,4.207-4.064,4.603-4.197c0.377-0.126,1.539-0.314,5.551,1.76l35.133,26.874
			c2.508,2.551,2.162,2.61,1.625,4.332c-0.556,1.781-2.993,5.196-6.16,8.462c-14.036,14.089-37.277,29.91-57.268,24.64
			c-18.396-3.184-39.49-17.422-64.037-41.969c-10.152-10.152-21.315-21.315-30.326-30.326
			c-24.548-24.548-38.785-45.642-41.969-64.037c-5.27-19.991,10.551-43.232,24.64-57.268c3.267-3.166,6.681-5.604,8.462-6.16
			C1202.881-83.957,1204.096-83.896,1205.781-81.861L1205.781-81.861z"/>
		<path fill="#E6262C" d="M1348.428-128.138c-5.076,0-9.19,4.114-9.19,9.19c0,5.075,4.115,9.19,9.19,9.19h32.932l-76.203,76.203
			c-3.589,3.589-3.589,9.43,0,13.02c3.589,3.589,9.431,3.589,13.02,0l76.203-76.203v32.932c0,5.076,4.115,9.19,9.19,9.19
			c5.076,0,9.19-4.114,9.19-9.19v-55.142c0-5.076-4.115-9.19-9.19-9.19H1348.428z"/>
	</g>
</g>
</svg>
